<svg width="22" height="11" viewBox="0 0 22 11" fill="none" xmlns="http://www.w3.org/2000/svg">
<path d="M2.702 8.796V6.822H0.644V5.632H2.702V3.588H3.92V5.632H5.978V6.822H3.92V8.796H2.702ZM9.78119 10.14C9.51052 10.14 9.21185 10.1213 8.88519 10.084C8.55852 10.056 8.24585 10.0093 7.94719 9.944C7.65785 9.87867 7.41519 9.80867 7.21919 9.734V8.404C7.59252 8.55333 7.97519 8.66533 8.36719 8.74C8.76852 8.80533 9.16985 8.838 9.57119 8.838C10.2992 8.838 10.8405 8.73067 11.1952 8.516C11.5499 8.30133 11.7272 7.92333 11.7272 7.382C11.7272 6.89667 11.5639 6.54667 11.2372 6.332C10.9199 6.11733 10.4625 6.01 9.86519 6.01H8.50719L8.63319 4.876H9.76719C10.9525 4.876 11.5452 4.40933 11.5452 3.476C11.5452 3.01867 11.3865 2.68267 11.0692 2.468C10.7612 2.25333 10.2619 2.146 9.57119 2.146C9.18852 2.146 8.80119 2.18333 8.40919 2.258C8.02652 2.33267 7.68585 2.43533 7.38719 2.566V1.264C7.66719 1.152 8.03119 1.054 8.47919 0.969999C8.92719 0.885999 9.37052 0.843999 9.80919 0.843999C10.9105 0.843999 11.7272 1.07733 12.2592 1.544C12.8005 2.01067 13.0712 2.608 13.0712 3.336C13.0712 3.784 12.9592 4.204 12.7352 4.596C12.5205 4.988 12.1799 5.268 11.7132 5.436C12.2545 5.576 12.6465 5.828 12.8892 6.192C13.1412 6.556 13.2672 6.98533 13.2672 7.48C13.2672 8.38533 12.9499 9.05733 12.3152 9.496C11.6805 9.92533 10.8359 10.14 9.78119 10.14ZM17.489 10.14C17.0316 10.14 16.635 10.112 16.299 10.056C15.963 10 15.6456 9.92533 15.347 9.832V8.516C15.6363 8.628 15.9443 8.712 16.271 8.768C16.607 8.824 16.9803 8.852 17.391 8.852C18.231 8.852 18.8516 8.65133 19.253 8.25C19.6543 7.84867 19.855 7.31667 19.855 6.654V6.094C19.5283 6.32733 19.155 6.50467 18.735 6.626C18.315 6.74733 17.9276 6.808 17.573 6.808C16.5276 6.808 15.7483 6.55133 15.235 6.038C14.731 5.52467 14.479 4.79667 14.479 3.854C14.479 2.96733 14.7543 2.244 15.305 1.684C15.8556 1.124 16.7143 0.843999 17.881 0.843999C19.0103 0.843999 19.8596 1.12867 20.429 1.698C21.0076 2.258 21.297 3.13533 21.297 4.33V6.36C21.297 7.10667 21.143 7.76467 20.835 8.334C20.527 8.90333 20.0883 9.34667 19.519 9.664C18.9496 9.98133 18.273 10.14 17.489 10.14ZM17.797 5.646C18.1796 5.646 18.5483 5.58067 18.903 5.45C19.2576 5.31933 19.575 5.156 19.855 4.96V3.98C19.855 2.664 19.1923 2.006 17.867 2.006C17.195 2.006 16.691 2.16933 16.355 2.496C16.019 2.82267 15.851 3.26133 15.851 3.812C15.851 4.38133 15.9863 4.82933 16.257 5.156C16.537 5.48267 17.0503 5.646 17.797 5.646Z" fill="white"/>
</svg>
