<svg width="178" height="100" viewBox="0 0 178 100" fill="none" xmlns="http://www.w3.org/2000/svg">
<path d="M0.5 15C0.5 6.99187 6.99187 0.5 15 0.5H163C171.008 0.5 177.5 6.99187 177.5 15V85C177.5 93.0081 171.008 99.5 163 99.5H15C6.99187 99.5 0.5 93.0081 0.5 85V15Z" fill="#2E2E62" stroke="white"/>
<path d="M0.5 15C0.5 6.99187 6.99187 0.5 15 0.5H163C171.008 0.5 177.5 6.99187 177.5 15V28.5H0.5V15Z" fill="#2E2E62" stroke="white"/>
<path d="M156 65C156 74.3888 148.389 82 139 82C129.611 82 122 74.3888 122 65C122 55.6112 129.611 48 139 48C148.389 48 156 55.6112 156 65Z" fill="#CEFF86"/>
<path d="M146 65L135 71L135 59L146 65Z" fill="#4D4A91"/>
<path fill-rule="evenodd" clip-rule="evenodd" d="M139 84.3548C149.689 84.3548 158.355 75.6894 158.355 65C158.355 54.3106 149.689 45.6452 139 45.6452C128.311 45.6452 119.645 54.3106 119.645 65C119.645 75.6894 128.311 84.3548 139 84.3548ZM139 85C150.046 85 159 76.0457 159 65C159 53.9543 150.046 45 139 45C127.954 45 119 53.9543 119 65C119 76.0457 127.954 85 139 85Z" fill="#CEFF86"/>
<path d="M24.54 18V10.272H28.524C29.156 10.272 29.676 10.4 30.084 10.656C30.5 10.904 30.808 11.244 31.008 11.676C31.208 12.108 31.308 12.588 31.308 13.116C31.308 13.66 31.192 14.144 30.96 14.568C30.728 14.992 30.4 15.324 29.976 15.564C29.552 15.804 29.052 15.924 28.476 15.924H26.796V18H24.54ZM26.796 14.196H27.96C28.312 14.196 28.572 14.096 28.74 13.896C28.916 13.696 29.004 13.436 29.004 13.116C29.004 12.772 28.924 12.5 28.764 12.3C28.604 12.1 28.356 12 28.02 12H26.796V14.196ZM30.7102 18L33.6742 10.272H36.0622L39.0262 18H36.6742L36.0262 16.356H33.6982L33.0622 18H30.7102ZM33.9982 14.736H35.7262L34.8622 12.468L33.9982 14.736ZM42.0954 18.12C41.5754 18.12 41.0834 18.08 40.6194 18C40.1554 17.912 39.7594 17.792 39.4314 17.64V15.78C39.7914 15.948 40.1914 16.084 40.6314 16.188C41.0714 16.292 41.4834 16.344 41.8674 16.344C42.2674 16.344 42.5674 16.312 42.7674 16.248C42.9754 16.176 43.0794 16.02 43.0794 15.78C43.0794 15.612 43.0194 15.48 42.8994 15.384C42.7874 15.288 42.6074 15.2 42.3594 15.12C42.1194 15.04 41.8034 14.94 41.4114 14.82C40.8914 14.652 40.4794 14.468 40.1754 14.268C39.8714 14.068 39.6514 13.824 39.5154 13.536C39.3874 13.248 39.3234 12.896 39.3234 12.48C39.3234 11.72 39.5914 11.144 40.1274 10.752C40.6714 10.352 41.4754 10.152 42.5394 10.152C42.9634 10.152 43.3994 10.188 43.8474 10.26C44.3034 10.332 44.6714 10.412 44.9514 10.5V12.372C44.5754 12.22 44.2154 12.112 43.8714 12.048C43.5274 11.984 43.2034 11.952 42.8994 11.952C42.5474 11.952 42.2474 11.98 41.9994 12.036C41.7514 12.092 41.6274 12.236 41.6274 12.468C41.6274 12.668 41.7314 12.816 41.9394 12.912C42.1554 13 42.5354 13.116 43.0794 13.26C43.7114 13.428 44.1914 13.632 44.5194 13.872C44.8554 14.112 45.0834 14.392 45.2034 14.712C45.3234 15.024 45.3834 15.38 45.3834 15.78C45.3834 16.484 45.1114 17.052 44.5674 17.484C44.0234 17.908 43.1994 18.12 42.0954 18.12ZM48.6345 18.12C48.1145 18.12 47.6225 18.08 47.1585 18C46.6945 17.912 46.2985 17.792 45.9705 17.64V15.78C46.3305 15.948 46.7305 16.084 47.1705 16.188C47.6105 16.292 48.0225 16.344 48.4065 16.344C48.8065 16.344 49.1065 16.312 49.3065 16.248C49.5145 16.176 49.6185 16.02 49.6185 15.78C49.6185 15.612 49.5585 15.48 49.4385 15.384C49.3265 15.288 49.1465 15.2 48.8985 15.12C48.6585 15.04 48.3425 14.94 47.9505 14.82C47.4305 14.652 47.0185 14.468 46.7145 14.268C46.4105 14.068 46.1905 13.824 46.0545 13.536C45.9265 13.248 45.8625 12.896 45.8625 12.48C45.8625 11.72 46.1305 11.144 46.6665 10.752C47.2105 10.352 48.0145 10.152 49.0785 10.152C49.5025 10.152 49.9385 10.188 50.3865 10.26C50.8425 10.332 51.2105 10.412 51.4905 10.5V12.372C51.1145 12.22 50.7545 12.112 50.4105 12.048C50.0665 11.984 49.7425 11.952 49.4385 11.952C49.0865 11.952 48.7865 11.98 48.5385 12.036C48.2905 12.092 48.1665 12.236 48.1665 12.468C48.1665 12.668 48.2705 12.816 48.4785 12.912C48.6945 13 49.0745 13.116 49.6185 13.26C50.2505 13.428 50.7305 13.632 51.0585 13.872C51.3945 14.112 51.6225 14.392 51.7425 14.712C51.8625 15.024 51.9225 15.38 51.9225 15.78C51.9225 16.484 51.6505 17.052 51.1065 17.484C50.5625 17.908 49.7385 18.12 48.6345 18.12ZM52.7588 18V10.272H55.0148V18H52.7588ZM59.8066 18.12C58.5266 18.12 57.5466 17.808 56.8666 17.184C56.1946 16.56 55.8586 15.552 55.8586 14.16C55.8586 13.2 56.0106 12.428 56.3146 11.844C56.6186 11.252 57.0626 10.824 57.6466 10.56C58.2386 10.288 58.9586 10.152 59.8066 10.152C60.6546 10.152 61.3706 10.288 61.9546 10.56C62.5466 10.824 62.9946 11.252 63.2986 11.844C63.6026 12.428 63.7546 13.2 63.7546 14.16C63.7546 15.552 63.4146 16.56 62.7346 17.184C62.0546 17.808 61.0786 18.12 59.8066 18.12ZM59.8066 16.2C60.3826 16.2 60.7986 16.04 61.0546 15.72C61.3186 15.392 61.4506 14.872 61.4506 14.16C61.4506 13.4 61.3186 12.864 61.0546 12.552C60.7986 12.232 60.3826 12.072 59.8066 12.072C59.2306 12.072 58.8106 12.232 58.5466 12.552C58.2906 12.864 58.1626 13.4 58.1626 14.16C58.1626 14.872 58.2906 15.392 58.5466 15.72C58.8106 16.04 59.2306 16.2 59.8066 16.2ZM64.5947 18V10.272H66.5147L69.4307 14.364V10.272H71.6867V18H69.7547L66.8507 13.92V18H64.5947ZM72.7627 18V10.272H78.5707V11.952H75.0187V13.284H78.1147V14.988H75.0187V18H72.7627ZM79.1728 18V10.272H83.1928C83.8248 10.272 84.3408 10.388 84.7408 10.62C85.1488 10.852 85.4528 11.176 85.6528 11.592C85.8528 12 85.9528 12.476 85.9528 13.02C85.9528 13.54 85.8208 14 85.5568 14.4C85.3008 14.792 84.9568 15.092 84.5248 15.3C84.6128 15.372 84.6888 15.46 84.7528 15.564C84.8168 15.66 84.8888 15.796 84.9688 15.972L85.8568 18H83.5048L82.6888 16.14C82.6248 15.996 82.5448 15.896 82.4488 15.84C82.3608 15.776 82.2328 15.744 82.0648 15.744H81.4288V18H79.1728ZM81.4288 14.016H82.6168C82.9448 14.016 83.1968 13.932 83.3728 13.764C83.5568 13.588 83.6488 13.34 83.6488 13.02C83.6488 12.34 83.3288 12 82.6888 12H81.4288V14.016ZM90.39 18.12C89.67 18.12 89.034 18.004 88.482 17.772C87.938 17.532 87.51 17.184 87.198 16.728C86.886 16.264 86.73 15.696 86.73 15.024V10.272H88.986V14.784C88.986 15.728 89.454 16.2 90.39 16.2C90.838 16.2 91.182 16.084 91.422 15.852C91.662 15.62 91.782 15.264 91.782 14.784V10.272H94.038V15.024C94.038 15.696 93.882 16.264 93.57 16.728C93.266 17.184 92.838 17.532 92.286 17.772C91.742 18.004 91.11 18.12 90.39 18.12ZM95.0634 18V10.272H97.3194V18H95.0634ZM100.095 18V11.952H97.9233V10.272H104.523V11.952H102.351V18H100.095ZM107.339 15.456V13.728H112.199V15.456H107.339ZM115.501 18V10.272H118.957C119.749 10.272 120.425 10.404 120.985 10.668C121.545 10.924 121.973 11.34 122.269 11.916C122.565 12.484 122.713 13.24 122.713 14.184C122.713 15.512 122.389 16.48 121.741 17.088C121.093 17.696 120.165 18 118.957 18H115.501ZM117.757 16.272H118.669C119.045 16.272 119.361 16.22 119.617 16.116C119.873 16.004 120.069 15.8 120.205 15.504C120.341 15.2 120.409 14.76 120.409 14.184C120.409 13.608 120.345 13.164 120.217 12.852C120.097 12.532 119.909 12.312 119.653 12.192C119.397 12.064 119.069 12 118.669 12H117.757V16.272ZM123.552 18V10.272H127.572C128.204 10.272 128.72 10.388 129.12 10.62C129.528 10.852 129.832 11.176 130.032 11.592C130.232 12 130.332 12.476 130.332 13.02C130.332 13.54 130.2 14 129.936 14.4C129.68 14.792 129.336 15.092 128.904 15.3C128.992 15.372 129.068 15.46 129.132 15.564C129.196 15.66 129.268 15.796 129.348 15.972L130.236 18H127.884L127.068 16.14C127.004 15.996 126.924 15.896 126.828 15.84C126.74 15.776 126.612 15.744 126.444 15.744H125.808V18H123.552ZM125.808 14.016H126.996C127.324 14.016 127.576 13.932 127.752 13.764C127.936 13.588 128.028 13.34 128.028 13.02C128.028 12.34 127.708 12 127.068 12H125.808V14.016ZM130.39 18L133.354 10.272H135.742L138.706 18H136.354L135.706 16.356H133.378L132.742 18H130.39ZM133.678 14.736H135.406L134.542 12.468L133.678 14.736ZM139.548 18V10.272H141.804V12.996L144.144 10.272H146.712L143.988 13.44L146.904 18H144.504L142.596 14.88L141.804 15.768V18H139.548ZM147.739 18V10.272H153.595V12H149.995V13.26H153.151V15.012H149.995V16.272H153.595V18H147.739Z" fill="#A7A7A7"/>
<path d="M34.9512 39.2253C34.9512 38.0585 35.897 37.1126 37.0638 37.1126H37.2751C38.4419 37.1126 39.3878 38.0585 39.3878 39.2253V43.4507C39.3878 44.6175 38.4419 45.5633 37.2751 45.5633H37.0638C35.897 45.5633 34.9512 44.6175 34.9512 43.4507V39.2253Z" fill="#4C4A91"/>
<path fill-rule="evenodd" clip-rule="evenodd" d="M34.8457 39.2253C34.8457 38.0001 35.8389 37.007 37.064 37.007H37.2753C38.5004 37.007 39.4936 38.0001 39.4936 39.2253V43.4506C39.4936 44.6758 38.5004 45.6689 37.2753 45.6689H37.064C35.8389 45.6689 34.8457 44.6758 34.8457 43.4506V39.2253ZM37.064 37.2182C35.9556 37.2182 35.057 38.1168 35.057 39.2253V43.4506C35.057 44.5591 35.9556 45.4577 37.064 45.4577H37.2753C38.3837 45.4577 39.2823 44.5591 39.2823 43.4506V39.2253C39.2823 38.1168 38.3837 37.2182 37.2753 37.2182H37.064Z" fill="#CEFF86"/>
<path d="M70.6543 39.2253C70.6543 38.0585 71.6002 37.1126 72.767 37.1126H72.9782C74.145 37.1126 75.0909 38.0585 75.0909 39.2253V43.4507C75.0909 44.6175 74.145 45.5633 72.9782 45.5633H72.767C71.6002 45.5633 70.6543 44.6175 70.6543 43.4507V39.2253Z" fill="#4C4A91"/>
<path fill-rule="evenodd" clip-rule="evenodd" d="M70.5488 39.2253C70.5488 38.0001 71.542 37.007 72.7671 37.007H72.9784C74.2035 37.007 75.1967 38.0001 75.1967 39.2253V43.4506C75.1967 44.6758 74.2035 45.6689 72.9784 45.6689H72.7671C71.542 45.6689 70.5488 44.6758 70.5488 43.4506V39.2253ZM72.7671 37.2182C71.6587 37.2182 70.7601 38.1168 70.7601 39.2253V43.4506C70.7601 44.5591 71.6587 45.4577 72.7671 45.4577H72.9784C74.0869 45.4577 74.9854 44.5591 74.9854 43.4506V39.2253C74.9854 38.1168 74.0869 37.2182 72.9784 37.2182H72.7671Z" fill="#CEFF86"/>
<path d="M34.9512 39.014C34.9512 37.9639 35.8025 37.1126 36.8526 37.1126H73.1906C74.2407 37.1126 75.092 37.9639 75.092 39.014C75.092 40.0642 74.2407 40.9155 73.1906 40.9155H36.8526C35.8025 40.9155 34.9512 40.0642 34.9512 39.014Z" fill="#4C4A91"/>
<path fill-rule="evenodd" clip-rule="evenodd" d="M34.8457 39.014C34.8457 37.9055 35.7443 37.007 36.8527 37.007H73.1908C74.2992 37.007 75.1978 37.9055 75.1978 39.014C75.1978 40.1225 74.2992 41.021 73.1908 41.021H36.8527C35.7443 41.021 34.8457 40.1225 34.8457 39.014ZM36.8527 37.2182C35.861 37.2182 35.057 38.0222 35.057 39.014C35.057 40.0058 35.861 40.8098 36.8527 40.8098H73.1908C74.1825 40.8098 74.9865 40.0058 74.9865 39.014C74.9865 38.0222 74.1825 37.2182 73.1908 37.2182H36.8527Z" fill="#CEFF86"/>
<path d="M19.1055 50.2113C19.1055 46.7109 21.9431 43.8732 25.4435 43.8732H87.5562C91.0566 43.8732 93.8942 46.7109 93.8942 50.2113V80.6338C93.8942 84.1342 91.0566 86.9718 87.5562 86.9718H25.4435C21.9431 86.9718 19.1055 84.1342 19.1055 80.6338V50.2113Z" fill="#4C4A91"/>
<path fill-rule="evenodd" clip-rule="evenodd" d="M19 50.2112C19 46.6525 21.8849 43.7675 25.4437 43.7675H87.5563C91.1151 43.7675 94 46.6525 94 50.2112V80.6337C94 84.1925 91.1151 87.0774 87.5563 87.0774H25.4437C21.8849 87.0774 19 84.1925 19 80.6337V50.2112ZM25.4437 43.9788C22.0016 43.9788 19.2113 46.7692 19.2113 50.2112V80.6337C19.2113 84.0758 22.0016 86.8661 25.4437 86.8661H87.5563C90.9984 86.8661 93.7887 84.0758 93.7887 80.6337V50.2112C93.7887 46.7692 90.9984 43.9788 87.5563 43.9788H25.4437Z" fill="#CEFF86"/>
<path d="M42.3457 48.521C42.3457 47.3542 43.2916 46.4083 44.4584 46.4083H68.7542C69.9209 46.4083 70.8668 47.3542 70.8668 48.521V51.69C70.8668 52.8568 69.9209 53.8027 68.7542 53.8027H44.4584C43.2916 53.8027 42.3457 52.8568 42.3457 51.69V48.521Z" fill="#4D4A91"/>
<path fill-rule="evenodd" clip-rule="evenodd" d="M42.2402 48.5209C42.2402 47.2958 43.2334 46.3026 44.4585 46.3026H68.7543C69.9795 46.3026 70.9726 47.2958 70.9726 48.5209V51.6899C70.9726 52.9151 69.9795 53.9082 68.7543 53.9082H44.4585C43.2334 53.9082 42.2402 52.9151 42.2402 51.6899V48.5209ZM44.4585 46.5139C43.3501 46.5139 42.4515 47.4125 42.4515 48.5209V51.6899C42.4515 52.7984 43.3501 53.697 44.4585 53.697H68.7543C69.8628 53.697 70.7614 52.7984 70.7614 51.6899V48.5209C70.7614 47.4125 69.8628 46.5139 68.7543 46.5139H44.4585Z" fill="#CEFF86"/>
<path d="M47.8867 51.4788H47.2949L48.1966 48.8667H48.9083L49.8088 51.4788H49.217L48.5627 49.4636H48.5423L47.8867 51.4788ZM47.8497 50.4521H49.2476V50.8832H47.8497V50.4521Z" fill="#CEFF86"/>
<path d="M50.6754 48.8667V51.4788H50.1231V48.8667H50.6754Z" fill="#CEFF86"/>
<path d="M51.1298 51.4788V48.8667H52.1603C52.3575 48.8667 52.5259 48.902 52.6653 48.9726C52.8056 49.0423 52.9124 49.1414 52.9855 49.2698C53.0594 49.3973 53.0964 49.5474 53.0964 49.72C53.0964 49.8934 53.059 50.0427 52.9842 50.1677C52.9094 50.2918 52.801 50.387 52.659 50.4533C52.5178 50.5197 52.3469 50.5528 52.1463 50.5528H51.4563V50.109H52.057C52.1624 50.109 52.25 50.0945 52.3197 50.0656C52.3894 50.0367 52.4413 49.9933 52.4753 49.9355C52.5102 49.8777 52.5276 49.8059 52.5276 49.72C52.5276 49.6333 52.5102 49.5601 52.4753 49.5006C52.4413 49.4411 52.389 49.396 52.3184 49.3654C52.2487 49.334 52.1607 49.3182 52.0544 49.3182H51.682V51.4788H51.1298ZM52.5404 50.2901L53.1895 51.4788H52.5799L51.9447 50.2901H52.5404Z" fill="#CEFF86"/>
<path d="M53.4867 51.4788V48.8667H54.039V49.9445H55.16V48.8667H55.711V51.4788H55.16V50.3998H54.039V51.4788H53.4867Z" fill="#CEFF86"/>
<path d="M56.1663 51.4788V48.8667H57.9264V49.3221H56.7186V49.9445H57.8359V50.3998H56.7186V51.0235H57.9315V51.4788H56.1663Z" fill="#CEFF86"/>
<path d="M58.8157 51.4788H58.2239L59.1256 48.8667H59.8373L60.7377 51.4788H60.1459L59.4917 49.4636H59.4712L58.8157 51.4788ZM58.7787 50.4521H60.1765V50.8832H58.7787V50.4521Z" fill="#CEFF86"/>
<path d="M61.9781 51.4788H61.0521V48.8667H61.9857C62.2484 48.8667 62.4746 48.919 62.6642 49.0236C62.8538 49.1273 62.9997 49.2766 63.1017 49.4713C63.2046 49.666 63.256 49.899 63.256 50.1702C63.256 50.4423 63.2046 50.6761 63.1017 50.8717C62.9997 51.0672 62.853 51.2173 62.6617 51.3219C62.4712 51.4265 62.2433 51.4788 61.9781 51.4788ZM61.6044 51.0056H61.9551C62.1184 51.0056 62.2557 50.9767 62.3671 50.9189C62.4793 50.8602 62.5635 50.7696 62.6196 50.6472C62.6766 50.5239 62.705 50.3649 62.705 50.1702C62.705 49.9772 62.6766 49.8195 62.6196 49.697C62.5635 49.5746 62.4797 49.4845 62.3683 49.4266C62.2569 49.3688 62.1196 49.3399 61.9564 49.3399H61.6044V51.0056Z" fill="#CEFF86"/>
<path d="M65.0821 49.618C65.0719 49.5151 65.0281 49.4351 64.9507 49.3782C64.8733 49.3212 64.7683 49.2927 64.6357 49.2927C64.5456 49.2927 64.4695 49.3055 64.4074 49.331C64.3453 49.3556 64.2977 49.3901 64.2645 49.4343C64.2322 49.4785 64.2161 49.5287 64.2161 49.5848C64.2144 49.6316 64.2242 49.6724 64.2454 49.7072C64.2675 49.7421 64.2977 49.7723 64.336 49.7978C64.3742 49.8224 64.4184 49.8441 64.4686 49.8628C64.5188 49.8807 64.5723 49.896 64.6293 49.9087L64.864 49.9649C64.9779 49.9904 65.0825 50.0244 65.1777 50.0669C65.273 50.1094 65.3554 50.1617 65.4252 50.2238C65.4949 50.2858 65.5489 50.359 65.5871 50.4431C65.6263 50.5273 65.6462 50.6238 65.6471 50.7327C65.6462 50.8925 65.6054 51.0311 65.5247 51.1484C65.4447 51.2649 65.3291 51.3555 65.1777 51.4201C65.0272 51.4839 64.8457 51.5158 64.6331 51.5158C64.4223 51.5158 64.2386 51.4834 64.0822 51.4188C63.9266 51.3542 63.805 51.2586 63.7174 51.1319C63.6307 51.0043 63.5852 50.8466 63.5809 50.6587H64.1153C64.1213 50.7463 64.1464 50.8194 64.1906 50.8781C64.2356 50.9359 64.2956 50.9797 64.3704 51.0094C64.4461 51.0383 64.5315 51.0528 64.6268 51.0528C64.7203 51.0528 64.8015 51.0392 64.8704 51.012C64.9401 50.9848 64.9941 50.9469 65.0323 50.8985C65.0706 50.85 65.0897 50.7943 65.0897 50.7314C65.0897 50.6727 65.0723 50.6234 65.0374 50.5834C65.0034 50.5435 64.9533 50.5095 64.8869 50.4814C64.8215 50.4533 64.7411 50.4278 64.6459 50.4049L64.3615 50.3335C64.1413 50.2799 63.9674 50.1961 63.8398 50.0822C63.7123 49.9683 63.649 49.8148 63.6498 49.6218C63.649 49.4636 63.691 49.3255 63.7761 49.2073C63.8619 49.0891 63.9797 48.9968 64.1294 48.9305C64.279 48.8642 64.4491 48.831 64.6395 48.831C64.8334 48.831 65.0026 48.8642 65.1471 48.9305C65.2925 48.9968 65.4056 49.0891 65.4864 49.2073C65.5672 49.3255 65.6088 49.4624 65.6114 49.618H65.0821Z" fill="#CEFF86"/>
<path d="M29.4585 50.2111C29.4585 51.8446 28.1342 53.1688 26.5007 53.1688C24.8672 53.1688 23.543 51.8446 23.543 50.2111C23.543 48.5776 24.8672 47.2534 26.5007 47.2534C28.1342 47.2534 29.4585 48.5776 29.4585 50.2111Z" fill="#4D4A91"/>
<path fill-rule="evenodd" clip-rule="evenodd" d="M26.5009 47.3591C24.9257 47.3591 23.6488 48.6361 23.6488 50.2112C23.6488 51.7864 24.9257 53.0634 26.5009 53.0634C28.0761 53.0634 29.353 51.7864 29.353 50.2112C29.353 48.6361 28.0761 47.3591 26.5009 47.3591ZM23.4375 50.2112C23.4375 48.5194 24.809 47.1479 26.5009 47.1479C28.1927 47.1479 29.5643 48.5194 29.5643 50.2112C29.5643 51.9031 28.1927 53.2746 26.5009 53.2746C24.809 53.2746 23.4375 51.9031 23.4375 50.2112Z" fill="#CEFF86"/>
<path d="M47.8379 55.493H65.3731V86.7606H47.8379V55.493Z" fill="#4C4A91"/>
<path fill-rule="evenodd" clip-rule="evenodd" d="M47.7324 55.3872H65.4789V86.8661H47.7324V55.3872ZM47.9437 55.5985V86.6548H65.2676V55.5985H47.9437Z" fill="#CEFF86"/>
<path d="M55.0209 70.2816C55.0209 71.5651 53.9805 72.6056 52.697 72.6056C51.4135 72.6056 50.373 71.5651 50.373 70.2816C50.373 68.9982 51.4135 67.9577 52.697 67.9577C53.9805 67.9577 55.0209 68.9982 55.0209 70.2816Z" fill="#4D4A91"/>
<path fill-rule="evenodd" clip-rule="evenodd" d="M52.6972 68.0631C51.472 68.0631 50.4788 69.0563 50.4788 70.2814C50.4788 71.5066 51.472 72.4997 52.6972 72.4997C53.9223 72.4997 54.9155 71.5066 54.9155 70.2814C54.9155 69.0563 53.9223 68.0631 52.6972 68.0631ZM50.2676 70.2814C50.2676 68.9396 51.3553 67.8518 52.6972 67.8518C54.039 67.8518 55.1267 68.9396 55.1267 70.2814C55.1267 71.6232 54.039 72.711 52.6972 72.711C51.3553 72.711 50.2676 71.6232 50.2676 70.2814Z" fill="#CEFF86"/>
<path d="M62.6264 70.2816C62.6264 71.5651 61.5859 72.6056 60.3025 72.6056C59.019 72.6056 57.9785 71.5651 57.9785 70.2816C57.9785 68.9982 59.019 67.9577 60.3025 67.9577C61.5859 67.9577 62.6264 68.9982 62.6264 70.2816Z" fill="#4D4A91"/>
<path fill-rule="evenodd" clip-rule="evenodd" d="M60.3026 68.0631C59.0775 68.0631 58.0843 69.0563 58.0843 70.2814C58.0843 71.5066 59.0775 72.4997 60.3026 72.4997C61.5278 72.4997 62.5209 71.5066 62.5209 70.2814C62.5209 69.0563 61.5278 68.0631 60.3026 68.0631ZM57.873 70.2814C57.873 68.9396 58.9608 67.8518 60.3026 67.8518C61.6444 67.8518 62.7322 68.9396 62.7322 70.2814C62.7322 71.6232 61.6444 72.711 60.3026 72.711C58.9608 72.711 57.873 71.6232 57.873 70.2814Z" fill="#CEFF86"/>
<path d="M80.1616 50.2111C80.1616 51.8446 78.8374 53.1688 77.2038 53.1688C75.5703 53.1688 74.2461 51.8446 74.2461 50.2111C74.2461 48.5776 75.5703 47.2534 77.2038 47.2534C78.8374 47.2534 80.1616 48.5776 80.1616 50.2111Z" fill="#4D4A91"/>
<path fill-rule="evenodd" clip-rule="evenodd" d="M77.204 47.3591C75.6288 47.3591 74.3519 48.6361 74.3519 50.2112C74.3519 51.7864 75.6288 53.0634 77.204 53.0634C78.7792 53.0634 80.0561 51.7864 80.0561 50.2112C80.0561 48.6361 78.7792 47.3591 77.204 47.3591ZM74.1406 50.2112C74.1406 48.5194 75.5121 47.1479 77.204 47.1479C78.8959 47.1479 80.2674 48.5194 80.2674 50.2112C80.2674 51.9031 78.8959 53.2746 77.204 53.2746C75.5121 53.2746 74.1406 51.9031 74.1406 50.2112Z" fill="#CEFF86"/>
<path d="M89.4585 50.2111C89.4585 51.8446 88.1342 53.1688 86.5007 53.1688C84.8672 53.1688 83.543 51.8446 83.543 50.2111C83.543 48.5776 84.8672 47.2534 86.5007 47.2534C88.1342 47.2534 89.4585 48.5776 89.4585 50.2111Z" fill="#4D4A91"/>
<path fill-rule="evenodd" clip-rule="evenodd" d="M86.5009 47.3591C84.9257 47.3591 83.6488 48.6361 83.6488 50.2112C83.6488 51.7864 84.9257 53.0634 86.5009 53.0634C88.0761 53.0634 89.353 51.7864 89.353 50.2112C89.353 48.6361 88.0761 47.3591 86.5009 47.3591ZM83.4375 50.2112C83.4375 48.5194 84.809 47.1479 86.5009 47.1479C88.1927 47.1479 89.5643 48.5194 89.5643 50.2112C89.5643 51.9031 88.1927 53.2746 86.5009 53.2746C84.809 53.2746 83.4375 51.9031 83.4375 50.2112Z" fill="#CEFF86"/>
<path d="M33.4727 47.7815C33.4727 47.4898 33.7091 47.2534 34.0008 47.2534C34.2925 47.2534 34.529 47.4898 34.529 47.7815V52.6407C34.529 52.9324 34.2925 53.1688 34.0008 53.1688C33.7091 53.1688 33.4727 52.9324 33.4727 52.6407V47.7815Z" fill="#CEFF86"/>
<path d="M52.1688 60.7746C51.8771 60.7746 51.6406 60.5381 51.6406 60.2464C51.6406 59.9547 51.8771 59.7182 52.1688 59.7182L60.8308 59.7182C61.1225 59.7182 61.3589 59.9547 61.3589 60.2464C61.3589 60.5381 61.1225 60.7746 60.8308 60.7746L52.1688 60.7746Z" fill="#CEFF86"/>
<path d="M37.9082 47.7815C37.9082 47.4898 38.1447 47.2534 38.4364 47.2534C38.7281 47.2534 38.9645 47.4898 38.9645 47.7815V52.6407C38.9645 52.9324 38.7281 53.1688 38.4364 53.1688C38.1447 53.1688 37.9082 52.9324 37.9082 52.6407V47.7815Z" fill="#CEFF86"/>
<path d="M35.2668 51.2675C35.5585 51.2675 35.7949 51.504 35.7949 51.7957C35.7949 52.0874 35.5585 52.3239 35.2668 52.3239L32.7315 52.3239C32.4398 52.3239 32.2034 52.0874 32.2034 51.7957C32.2034 51.504 32.4398 51.2675 32.7315 51.2675L35.2668 51.2675Z" fill="#CEFF86"/>
<path d="M58.8242 58.9789C58.8242 58.6872 59.0607 58.4507 59.3524 58.4507C59.6441 58.4507 59.8806 58.6872 59.8806 58.9789L59.8806 61.5141C59.8806 61.8058 59.6441 62.0423 59.3524 62.0423C59.0607 62.0423 58.8242 61.8058 58.8242 61.5141L58.8242 58.9789Z" fill="#CEFF86"/>
<path d="M39.7043 48.0986C39.996 48.0986 40.2324 48.3351 40.2324 48.6268C40.2324 48.9185 39.996 49.1549 39.7043 49.1549L37.169 49.1549C36.8773 49.1549 36.6409 48.9185 36.6409 48.6268C36.6409 48.3351 36.8773 48.0986 37.169 48.0986L39.7043 48.0986Z" fill="#CEFF86"/>
<path d="M42.3441 71.7605C42.3441 76.661 38.3715 80.6337 33.4709 80.6337C28.5703 80.6337 24.5977 76.661 24.5977 71.7605C24.5977 66.8599 28.5703 62.8872 33.4709 62.8872C38.3715 62.8872 42.3441 66.8599 42.3441 71.7605Z" fill="#CEFF86"/>
<path fill-rule="evenodd" clip-rule="evenodd" d="M33.4711 62.9929C28.6288 62.9929 24.7035 66.9182 24.7035 71.7605C24.7035 76.6027 28.6288 80.5281 33.4711 80.5281C38.3133 80.5281 42.2387 76.6027 42.2387 71.7605C42.2387 66.9182 38.3133 62.9929 33.4711 62.9929ZM24.4922 71.7605C24.4922 66.8016 28.5122 62.7816 33.4711 62.7816C38.43 62.7816 42.4499 66.8016 42.4499 71.7605C42.4499 76.7194 38.43 80.7393 33.4711 80.7393C28.5122 80.7393 24.4922 76.7194 24.4922 71.7605Z" fill="#CEFF86"/>
<path d="M36.4292 71.7604C36.4292 73.3939 35.1049 74.7181 33.4714 74.7181C31.8379 74.7181 30.5137 73.3939 30.5137 71.7604C30.5137 70.1268 31.8379 68.8026 33.4714 68.8026C35.1049 68.8026 36.4292 70.1268 36.4292 71.7604Z" fill="#4D4A91"/>
<path fill-rule="evenodd" clip-rule="evenodd" d="M33.4716 68.9084C31.8964 68.9084 30.6195 70.1853 30.6195 71.7605C30.6195 73.3357 31.8964 74.6126 33.4716 74.6126C35.0468 74.6126 36.3237 73.3357 36.3237 71.7605C36.3237 70.1853 35.0468 68.9084 33.4716 68.9084ZM30.4082 71.7605C30.4082 70.0686 31.7797 68.6971 33.4716 68.6971C35.1634 68.6971 36.535 70.0686 36.535 71.7605C36.535 73.4524 35.1634 74.8239 33.4716 74.8239C31.7797 74.8239 30.4082 73.4524 30.4082 71.7605Z" fill="#CEFF86"/>
<path fill-rule="evenodd" clip-rule="evenodd" d="M33.4711 60.4578C27.2287 60.4578 22.1683 65.5182 22.1683 71.7606C22.1683 78.003 27.2287 83.0634 33.4711 83.0634C39.7135 83.0634 44.7739 78.003 44.7739 71.7606C44.7739 65.5182 39.7135 60.4578 33.4711 60.4578ZM21.957 71.7606C21.957 65.4016 27.1121 60.2465 33.4711 60.2465C39.8302 60.2465 44.9852 65.4016 44.9852 71.7606C44.9852 78.1197 39.8302 83.2747 33.4711 83.2747C27.1121 83.2747 21.957 78.1197 21.957 71.7606Z" fill="#CEFF86"/>
<path d="M22.9086 59.6127C22.9086 60.021 22.5775 60.3521 22.1691 60.3521C21.7607 60.3521 21.4297 60.021 21.4297 59.6127C21.4297 59.2043 21.7607 58.8732 22.1691 58.8732C22.5775 58.8732 22.9086 59.2043 22.9086 59.6127Z" fill="#CEFF86"/>
<path d="M22.9086 82.4297C22.9086 82.8381 22.5775 83.1692 22.1691 83.1692C21.7607 83.1692 21.4297 82.8381 21.4297 82.4297C21.4297 82.0213 21.7607 81.6903 22.1691 81.6903C22.5775 81.6903 22.9086 82.0213 22.9086 82.4297Z" fill="#CEFF86"/>
<path d="M44.8812 59.6127C44.8812 60.021 44.5502 60.3521 44.1418 60.3521C43.7334 60.3521 43.4023 60.021 43.4023 59.6127C43.4023 59.2043 43.7334 58.8732 44.1418 58.8732C44.5502 58.8732 44.8812 59.2043 44.8812 59.6127Z" fill="#CEFF86"/>
<path d="M44.8812 82.4297C44.8812 82.8381 44.5502 83.1692 44.1418 83.1692C43.7334 83.1692 43.4023 82.8381 43.4023 82.4297C43.4023 82.0213 43.7334 81.6903 44.1418 81.6903C44.5502 81.6903 44.8812 82.0213 44.8812 82.4297Z" fill="#CEFF86"/>
<path d="M89.2465 71.7605C89.2465 76.661 85.2738 80.6337 80.3732 80.6337C75.4727 80.6337 71.5 76.661 71.5 71.7605C71.5 66.8599 75.4727 62.8872 80.3732 62.8872C85.2738 62.8872 89.2465 66.8599 89.2465 71.7605Z" fill="#CEFF86"/>
<path fill-rule="evenodd" clip-rule="evenodd" d="M80.3734 62.9929C75.5312 62.9929 71.6058 66.9182 71.6058 71.7605C71.6058 76.6027 75.5312 80.5281 80.3734 80.5281C85.2156 80.5281 89.141 76.6027 89.141 71.7605C89.141 66.9182 85.2156 62.9929 80.3734 62.9929ZM71.3945 71.7605C71.3945 66.8016 75.4145 62.7816 80.3734 62.7816C85.3323 62.7816 89.3523 66.8016 89.3523 71.7605C89.3523 76.7194 85.3323 80.7393 80.3734 80.7393C75.4145 80.7393 71.3945 76.7194 71.3945 71.7605Z" fill="#CEFF86"/>
<path d="M83.3315 71.7604C83.3315 73.3939 82.0073 74.7181 80.3738 74.7181C78.7402 74.7181 77.416 73.3939 77.416 71.7604C77.416 70.1268 78.7402 68.8026 80.3738 68.8026C82.0073 68.8026 83.3315 70.1268 83.3315 71.7604Z" fill="#4D4A91"/>
<path fill-rule="evenodd" clip-rule="evenodd" d="M80.3739 68.9084C78.7987 68.9084 77.5218 70.1853 77.5218 71.7605C77.5218 73.3357 78.7987 74.6126 80.3739 74.6126C81.9491 74.6126 83.226 73.3357 83.226 71.7605C83.226 70.1853 81.9491 68.9084 80.3739 68.9084ZM77.3105 71.7605C77.3105 70.0686 78.6821 68.6971 80.3739 68.6971C82.0658 68.6971 83.4373 70.0686 83.4373 71.7605C83.4373 73.4524 82.0658 74.8239 80.3739 74.8239C78.6821 74.8239 77.3105 73.4524 77.3105 71.7605Z" fill="#CEFF86"/>
<path fill-rule="evenodd" clip-rule="evenodd" d="M80.3735 60.4578C74.1311 60.4578 69.0706 65.5182 69.0706 71.7606C69.0706 78.003 74.1311 83.0634 80.3735 83.0634C86.6158 83.0634 91.6763 78.003 91.6763 71.7606C91.6763 65.5182 86.6158 60.4578 80.3735 60.4578ZM68.8594 71.7606C68.8594 65.4016 74.0144 60.2465 80.3735 60.2465C86.7325 60.2465 91.8875 65.4016 91.8875 71.7606C91.8875 78.1197 86.7325 83.2747 80.3735 83.2747C74.0144 83.2747 68.8594 78.1197 68.8594 71.7606Z" fill="#CEFF86"/>
<path d="M69.809 59.6127C69.809 60.021 69.4779 60.3521 69.0695 60.3521C68.6611 60.3521 68.3301 60.021 68.3301 59.6127C68.3301 59.2043 68.6611 58.8732 69.0695 58.8732C69.4779 58.8732 69.809 59.2043 69.809 59.6127Z" fill="#CEFF86"/>
<path d="M69.809 82.4297C69.809 82.8381 69.4779 83.1692 69.0695 83.1692C68.6611 83.1692 68.3301 82.8381 68.3301 82.4297C68.3301 82.0213 68.6611 81.6903 69.0695 81.6903C69.4779 81.6903 69.809 82.0213 69.809 82.4297Z" fill="#CEFF86"/>
<path d="M91.7816 59.6127C91.7816 60.021 91.4506 60.3521 91.0422 60.3521C90.6338 60.3521 90.3027 60.021 90.3027 59.6127C90.3027 59.2043 90.6338 58.8732 91.0422 58.8732C91.4506 58.8732 91.7816 59.2043 91.7816 59.6127Z" fill="#CEFF86"/>
<path d="M91.7816 82.4297C91.7816 82.8381 91.4506 83.1692 91.0422 83.1692C90.6338 83.1692 90.3027 82.8381 90.3027 82.4297C90.3027 82.0213 90.6338 81.6903 91.0422 81.6903C91.4506 81.6903 91.7816 82.0213 91.7816 82.4297Z" fill="#CEFF86"/>
<path d="M19.1055 55.493H93.8942V55.9155H19.1055V55.493Z" fill="#CEFF86"/>
<path d="M47.8379 75.1407H65.3731V76.4083H47.8379V75.1407Z" fill="#CEFF86"/>
<path d="M47.8379 78.521H65.3731V78.9435H47.8379V78.521Z" fill="#CEFF86"/>
<path d="M47.8379 81.0562H65.3731V81.4787H47.8379V81.0562Z" fill="#CEFF86"/>
<path d="M47.8379 83.5914H65.3731V84.014H47.8379V83.5914Z" fill="#CEFF86"/>
<path d="M47.8379 64.1549H65.3731V65.4225H47.8379V64.1549Z" fill="#CEFF86"/>
</svg>
